<?xml version="1.0" encoding="UTF-8"?><svg width="159" height="38" viewBox="0 0 159 38" fill="none" xmlns="http://www.w3.org/2000/svg">
<path d="M18.9316 23.7021V1.53906H26.0134V22.7896C26.0134 24.2856 26.3359 24.6509 27.8373 24.6509H28.4463L29.2802 30.5145C28.7439 30.5872 26.5498 30.7467 25.2265 30.7467C21.3277 30.7467 18.9319 29.3599 18.9319 23.7021" fill="#324354"/>
<path d="M88.0213 20.454C88.0213 18.0091 87.5923 15.8556 84.5161 15.8556C81.2262 15.8556 80.2595 17.5711 80.2595 20.454C80.2595 23.3368 80.9753 24.9069 84.5161 24.9069C87.5208 24.9069 88.0213 22.8988 88.0213 20.454ZM73.1777 10.1652L78.6852 9.72694L79.2229 11.4024C80.331 10.3431 82.2632 9.28516 86.4116 9.28516C93.5659 9.28516 95.2102 14.4321 95.2102 20.1614C95.2102 25.9284 93.3864 31.0026 85.9824 31.0026C82.6925 31.0026 81.1539 30.2358 80.2597 29.3961V36.6955H73.1779L73.1777 10.1652Z" fill="#324354"/>
<path d="M120.476 10.1662L125.983 9.72799L126.699 11.9143C127.593 10.673 130.061 9.61502 132.995 9.50586V16.4613C128.273 16.4966 127.557 17.936 127.557 20.7838V30.6748H120.476V10.1662Z" fill="#324354"/>
<path d="M134.97 9.51714H138.617L139.761 5.27138L145.234 4.06641V9.51714H149.705V16.4688H145.234V22.4994C145.234 23.9226 145.45 24.6518 147.666 24.6518H149.705V30.6735C148.633 30.7462 147.452 30.7829 146.129 30.7829C140.155 30.7829 138.188 28.8489 138.188 23.594V16.4691H134.97V9.51714Z" fill="#324354"/>
<path d="M157.567 30.6696H151.668V24.6504H157.567V30.6696Z" fill="#FA5959"/>
<path d="M1.43359 9.76038H5.29545V9.35886C5.29545 4.10392 7.22764 1.47461 13.8801 1.47461C15.6327 1.47461 15.9537 1.50996 16.8122 1.58476V7.4608H14.8456C12.8076 7.4608 12.3785 7.97175 12.3785 9.32215V9.76038H16.8122V15.8913H12.3785V30.6732H5.29545V15.8913H1.43359V9.76038Z" fill="#324354"/>
<path d="M40.3716 15.2126C43.2865 15.2126 43.5004 16.6271 43.6062 18.3328H36.3191C36.6034 16.3372 37.5281 15.2126 40.3716 15.2126M44.6959 24.4322C43.525 25.1315 42.9211 25.2882 40.5843 25.2882C37.8122 25.2882 36.7458 24.2816 36.3904 22.5772H50.0053C50.2537 15.2126 49.6497 9.26367 40.5843 9.26367C31.4844 9.26367 29.5645 14.378 29.5645 20.0735C29.5645 25.9145 31.4844 31.0564 40.5843 31.0564C44.1732 31.0564 46.4362 30.3775 48.8382 28.7847L44.6959 24.4322Z" fill="#324354"/>
<path d="M64.0466 30.6823L60.5734 25.6169L57.1014 30.6823H49.1846L56.5959 19.9077L49.8647 10.1723L57.8676 10.166L60.6079 14.1395L63.3505 10.1672L71.4419 10.1723L64.5828 19.86L72.0163 30.6823H64.0466Z" fill="#324354"/>
<path d="M111.769 20.3809C111.769 17.7528 111.126 15.8552 107.799 15.8552C104.473 15.8552 103.829 17.7528 103.829 20.3809C103.829 22.9726 104.473 24.9066 107.799 24.9066C111.126 24.9066 111.769 22.9726 111.769 20.3809ZM96.6758 20.1614C96.6758 13.2286 99.7875 9.28516 107.799 9.28516C115.811 9.28516 118.887 13.2286 118.887 20.1614C118.887 27.0969 115.811 31.0754 107.799 31.0754C99.7875 31.0754 96.6758 27.0969 96.6758 20.1614Z" fill="#324354"/>
</svg>
