<?xml version="1.0" encoding="UTF-8"?><svg width="251" height="23" viewBox="0 0 251 23" fill="none" xmlns="http://www.w3.org/2000/svg">
<g clip-path="url(#clip0_2058_12869)">
<path d="M82.6759 3.77774V0.438625H70.3727V21.897H82.6759V18.5983H73.7639V12.8113H82.6759V9.5127H73.7639V3.77774H82.6759ZM99.6667 21.897H103.098V0.438625H99.6667V21.897ZM58.3125 18.5983V0.438625H54.8981V18.5115C54.8997 19.4099 55.2576 20.271 55.8935 20.9057C56.5293 21.5405 57.391 21.897 58.2894 21.897H67.9711V18.5983H58.3125ZM19.8519 0.438625V3.69094H25.1701V21.897H28.6019V3.69094H33.0058V0.438625H19.8519ZM48.2373 0.438625V9.43168H38.816V0.438625H35.3843V21.897H38.816V12.7534H48.2373V21.897H51.6632V0.438625H48.2373ZM84.8981 0.438625V3.69094H89.3368V21.897H92.7685V3.69094H97.1725V0.438625H84.8981ZM229.574 0.438625V15.618L218.671 1.22566C218.495 0.985208 218.265 0.788974 218 0.652404C217.735 0.515834 217.442 0.442654 217.144 0.438625H217.097C216.593 0.441401 216.11 0.639629 215.75 0.991546C215.389 1.34346 215.179 1.82159 215.164 2.3252V21.897H218.596V6.67126L229.557 21.1389C229.735 21.3775 229.967 21.57 230.235 21.6999C230.503 21.8298 230.798 21.8934 231.096 21.8854C231.595 21.8809 232.072 21.6806 232.425 21.3278C232.778 20.975 232.978 20.4978 232.983 19.9988V0.438625H229.574ZM211.993 3.77774V0.438625H198.417V21.897H211.97V18.5983H201.889V12.8113H212.01V9.5127H201.889V3.77774H211.993ZM244.036 9.27543H243.984C241.258 8.3958 239.586 7.73608 239.586 6.02311C239.586 4.43747 241.038 3.29742 242.977 3.29742C244.603 3.29742 246.542 3.82404 246.802 6.32983L246.848 6.76964H250.321L250.234 6.24302C249.58 2.3252 247.115 0.172421 243.017 0.172421C239.059 0.172421 236.113 2.67821 236.113 6.02311C236.113 10.1145 239.811 11.434 242.225 12.221L242.363 12.2673C245.089 13.1933 246.762 13.8067 246.762 15.699C246.762 17.5914 245.269 18.9108 243.104 18.9108C241.171 18.9108 239.053 18.0312 238.752 15.4386L238.706 15.0451H235.274L235.321 15.5254C235.674 19.5764 238.579 22.1689 243.104 22.1689C247.508 22.1689 250.24 18.824 250.24 15.7048C250.24 11.5671 246.628 10.2477 244.036 9.28122V9.27543ZM195.315 3.77774V0.438625H181.756V21.897H195.315V18.5983H185.188V12.8113H195.315V9.5127H185.188V3.77774H195.315ZM160.222 9.84835H149.748V13.147H157.85C157.08 17.0474 153.955 18.934 150.72 18.934C146.848 18.934 142.89 16.2488 142.89 11.1909C142.89 6.13307 146.762 3.44788 150.633 3.44788C152.07 3.43528 153.481 3.83463 154.698 4.59868C155.916 5.36273 156.889 6.4595 157.502 7.75923H161.061C160.354 5.56128 158.969 3.64356 157.105 2.28074C155.241 0.917917 152.994 0.179911 150.685 0.172421C144.348 0.172421 139.418 5.01038 139.418 11.1678C139.427 12.6213 139.722 14.0589 140.287 15.3982C140.852 16.7376 141.675 17.9525 142.71 18.9736C143.744 19.9947 144.97 20.8019 146.316 21.3492C147.663 21.8965 149.104 22.1731 150.558 22.1632C156.981 22.1632 161.426 17.4583 161.426 11.081C161.429 10.7581 161.304 10.4472 161.079 10.2162C160.853 9.98518 160.545 9.85292 160.222 9.84835V9.84835ZM171.356 11.3877H167.525V3.69094H170.87C173.689 3.69094 175.141 5.62381 175.141 7.51617C175.141 9.40853 173.909 11.1215 171.356 11.3877V11.3877ZM173.984 14.0613C175.332 13.6297 176.507 12.78 177.339 11.6354C178.172 10.4908 178.618 9.11085 178.613 7.69557C178.613 4.13075 175.888 0.484921 171.09 0.484921H164.152V21.897H167.543V14.6863H170.436L175.269 21.897H179.319L173.984 14.0613ZM124.678 13.4363L124.591 13.6967C124.119 15.2277 123.162 16.5639 121.865 17.5042C120.568 18.4446 119 18.9382 117.398 18.9108C113.527 18.9108 109.655 16.1389 109.655 11.1678C109.622 9.37204 110.225 7.62252 111.358 6.22829C112.49 4.83406 114.078 3.88485 115.843 3.54835C117.607 3.21184 119.433 3.50969 120.999 4.38927C122.565 5.26886 123.77 6.67359 124.4 8.35529L124.487 8.662H128.006L127.832 8.0833C127.215 5.79492 125.856 3.77624 123.967 2.34434C122.079 0.912452 119.768 0.148477 117.398 0.172421C111.808 0.172421 106.218 4.13075 106.218 11.1678C106.218 18.2048 111.762 22.1632 117.352 22.1632C121.837 22.1632 126.374 19.6111 128.087 13.9803L128.266 13.4016L124.678 13.4363ZM7.53125 14.3796L11.6863 4.88886L15.8588 14.3796H7.53125ZM14.088 1.97798C13.8767 1.51867 13.5381 1.12956 13.1125 0.856741C12.6868 0.583917 12.1919 0.438815 11.6863 0.438625C11.1851 0.438305 10.6946 0.583621 10.2744 0.856903C9.85416 1.13018 9.52241 1.51966 9.31944 1.97798L0.5 21.897H4.24421L6.09028 17.6782H17.3113L19.169 21.897H22.9074L14.088 1.97798Z" fill="#002F30"/>
</g>
<defs>
<clipPath id="clip0_2058_12869">
<rect width="250" height="21.9907" fill="white" transform="translate(0.5 0.171875)"/>
</clipPath>
</defs>
</svg>
