<?xml version="1.0" encoding="UTF-8"?><svg width="191" height="22" viewBox="0 0 191 22" fill="none" xmlns="http://www.w3.org/2000/svg">
<g clip-path="url(#clip0_2058_12767)">
<path d="M104.058 1.50977C97.3595 1.50977 93.8896 5.63043 93.8896 11.1796C93.8896 16.7508 97.3595 20.8935 104.058 20.8935C110.779 20.8935 114.249 16.7508 114.249 11.1796C114.259 5.63043 110.779 1.50977 104.058 1.50977V1.50977ZM162.128 1.50977C156.462 1.50977 153.618 3.76243 153.618 7.75151C153.618 10.9929 155.507 12.5199 159.416 12.9372L163.765 13.3997C165.423 13.5863 166.181 14.2231 166.181 15.0581C166.181 16.0031 165.072 16.8498 162.403 16.8498C159.318 16.8498 158.076 16.069 157.868 14.4976H153.355C153.563 18.7393 156.319 20.9045 162.238 20.9045C167.641 20.9045 170.66 18.5303 170.66 14.959C170.66 11.8495 168.871 9.98169 165.489 9.59716L161.206 9.11372C158.702 8.83914 158.077 8.21239 158.077 7.36608C158.077 6.42111 159.361 5.57549 161.876 5.57549C164.292 5.57549 165.555 6.4771 165.785 7.82859H170.387C170.156 3.92747 166.894 1.50977 162.128 1.50977ZM57.036 1.94916V13.8831C57.036 19.2011 61.7795 20.8605 65.7544 20.8605C69.708 20.8605 74.4299 19.2011 74.4299 13.8831V1.94916H69.7299V13.3446H69.7519C69.7519 15.7403 68.2813 16.7067 65.7666 16.7067C63.3286 16.7067 61.7361 15.6963 61.7361 13.3446V1.94916H57.036ZM17.6012 2.01523L1.16211 12.2335V20.442H1.30418L17.7873 10.1797H26.3416C26.6055 10.1797 26.8471 10.388 26.8471 10.6852C26.8471 10.9265 26.7373 11.0259 26.6059 11.1025L18.5119 15.9589C17.9847 16.2775 17.7983 16.9037 17.7983 17.3762L17.7865 20.442H28.0764V2.65283C28.0764 2.31228 27.8131 2.01523 27.4178 2.01523L17.6012 2.01523ZM43.3093 2.01523L36.2471 20.4431H41.1013L42.3314 16.9919H50.2162L51.4242 20.4431H56.4425L49.2933 2.01523L43.3093 2.01523ZM76.5828 2.01523V6.00386H82.5239V20.4431H87.2129V6.00386H93.132V2.01523L76.5828 2.01523ZM116.807 2.01523V20.4431H125.418C132.018 20.4431 133.84 17.9809 133.84 11.0915C133.84 4.61935 132.095 2.01523 125.418 2.01523H116.807ZM136.465 2.01523V20.4431H151.29V16.4534H141.165V13.1134H149.313V9.11373H141.165V6.00386H151.29V2.01523L136.465 2.01523ZM173.055 2.01523L173.077 20.4431H177.756V13.4437L184.103 20.4431H190.044L181.478 11.3448L190.044 2.01523H184.454L177.756 9.49805V2.01523L173.055 2.01523ZM104.058 5.65258C107.561 5.65258 109.44 7.79497 109.44 11.1796C109.45 14.641 107.561 16.7507 104.058 16.7507C100.588 16.7507 98.6778 14.6297 98.6778 11.1796C98.6778 7.79497 100.588 5.65258 104.058 5.65258V5.65258ZM46.3068 5.8508L48.8429 13.0693H43.7256L46.3068 5.8508ZM121.497 6.00387H125.23C128.174 6.00387 129.052 6.80588 129.052 11.0915C129.052 15.0034 128.064 16.4534 125.23 16.4534H121.497V6.00387Z" fill="black"/>
</g>
<defs>
<clipPath id="clip0_2058_12767">
<rect width="190" height="20.9" fill="white" transform="translate(0.5 0.71875)"/>
</clipPath>
</defs>
</svg>
