<?xml version="1.0" encoding="UTF-8"?><svg width="141" height="40" viewBox="0 0 141 40" fill="none" xmlns="http://www.w3.org/2000/svg">
<g clip-path="url(#clip0_1838_10243)">
<path d="M30.6982 7.74775C30.6711 7.55045 30.4987 7.44099 30.3557 7.42907C30.2137 7.41716 27.4324 7.3749 27.4324 7.3749C27.4324 7.3749 25.1062 5.11598 24.8764 4.88619C24.6467 4.6564 24.1979 4.72577 24.0234 4.77779C24.0212 4.77888 23.5866 4.91329 22.8549 5.13983C22.7325 4.74311 22.5525 4.25534 22.2956 3.7654C21.4675 2.18504 20.2546 1.34933 18.7891 1.34717C18.7869 1.34717 18.7858 1.34717 18.7837 1.34717C18.6818 1.34717 18.581 1.35692 18.4791 1.36559C18.4358 1.31356 18.3924 1.26262 18.3469 1.21276C17.7084 0.529884 16.8901 0.197119 15.9091 0.226385C14.0166 0.280581 12.1317 1.64741 10.6033 4.07541C9.52805 5.78368 8.70966 7.92988 8.47772 9.59152C6.30443 10.2646 4.78476 10.735 4.75116 10.7459C3.65423 11.0906 3.61954 11.1242 3.47646 12.1583C3.37024 12.9397 0.5 35.1343 0.5 35.1343L24.5534 39.2944L34.9786 36.7027C34.9786 36.7027 30.7253 7.94506 30.6982 7.74775ZM21.6507 5.5127C21.0968 5.68396 20.467 5.87907 19.7841 6.09043C19.7701 5.13224 19.6562 3.79901 19.2097 2.64679C20.6459 2.91886 21.3526 4.54367 21.6507 5.5127ZM18.5257 6.48064C17.2651 6.87083 15.8896 7.29682 14.5098 7.72392C14.8978 6.23784 15.6338 4.75828 16.5378 3.78817C16.8738 3.42722 17.3442 3.02508 17.9013 2.79529C18.4249 3.88789 18.5387 5.43465 18.5257 6.48064ZM15.947 1.48591C16.3914 1.47615 16.7654 1.57371 17.0852 1.78399C16.5736 2.04955 16.0793 2.43109 15.6154 2.92861C14.4133 4.21849 13.4919 6.2205 13.1245 8.15206C11.9788 8.50649 10.858 8.85447 9.82608 9.17315C10.4776 6.13271 13.0258 1.57045 15.947 1.48591Z" fill="#95BF47"/>
<path d="M30.3569 7.42967C30.215 7.41775 27.4336 7.37549 27.4336 7.37549C27.4336 7.37549 25.1075 5.11657 24.8777 4.88678C24.7921 4.80114 24.6761 4.7567 24.5547 4.73828L24.5558 39.2928L34.9799 36.7022C34.9799 36.7022 30.7266 7.94565 30.6995 7.74835C30.6724 7.55104 30.499 7.44158 30.3569 7.42967Z" fill="#5E8E3E"/>
<path d="M18.7761 12.7912L17.5654 17.3209C17.5654 17.3209 16.2148 16.7063 14.6139 16.8071C12.266 16.9556 12.2411 18.4363 12.265 18.8081C12.3929 20.8339 17.7225 21.2762 18.0217 26.0216C18.2569 29.7546 16.0414 32.3084 12.8492 32.51C9.01752 32.7517 6.9082 30.4917 6.9082 30.4917L7.72008 27.0383C7.72008 27.0383 9.84346 28.6404 11.5431 28.533C12.653 28.4626 13.0497 27.5597 13.0096 26.9212C12.8427 24.2786 8.50265 24.4347 8.22844 20.0925C7.99754 16.4386 10.3974 12.7359 15.6923 12.4021C17.7323 12.2709 18.7761 12.7912 18.7761 12.7912Z" fill="white"/>
<path d="M48.7073 22.2753C47.5086 21.6249 46.8925 21.0766 46.8925 20.3229C46.8925 19.364 47.7483 18.7479 49.0847 18.7479C50.6403 18.7479 52.0293 19.3984 52.0293 19.3984L53.1248 16.0419C53.1248 16.0419 52.1175 15.2539 49.1524 15.2539C45.0262 15.2539 42.1665 17.6169 42.1665 20.9389C42.1665 22.8225 43.5017 24.261 45.2831 25.2877C46.7216 26.109 47.2355 26.6918 47.2355 27.5475C47.2355 28.4377 46.5163 29.1569 45.181 29.1569C43.191 29.1569 41.3117 28.1292 41.3117 28.1292L40.1475 31.4856C40.1475 31.4856 41.8837 32.6499 44.8047 32.6499C49.0513 32.6499 52.0992 30.561 52.0992 26.7939C52.0981 24.7749 50.5575 23.3364 48.7073 22.2753Z" fill="black"/>
<path d="M65.6246 15.2215C63.5355 15.2215 61.8918 16.2149 60.6253 17.7211L60.5565 17.6867L62.3712 8.20117H57.6451L53.0566 32.3434H57.7827L59.3578 24.091C59.9738 20.9743 61.5832 19.0574 63.0905 19.0574C64.1515 19.0574 64.5633 19.7766 64.5633 20.8044C64.5633 21.4549 64.4945 22.2429 64.358 22.8934L62.5776 32.3445H67.304L69.1526 22.5848C69.3584 21.557 69.4958 20.325 69.4958 19.5025C69.4938 16.8309 68.0899 15.2215 65.6246 15.2215Z" fill="black"/>
<path d="M80.1785 15.2207C74.4932 15.2207 70.7275 20.3575 70.7275 26.0759C70.7275 29.7398 72.9871 32.6845 77.234 32.6845C82.8157 32.6845 86.5827 27.6853 86.5827 21.8293C86.5827 18.4395 84.596 15.2207 80.1785 15.2207ZM77.85 29.056C76.2403 29.056 75.5553 27.6864 75.5553 25.9737C75.5553 23.2688 76.9598 18.8513 79.528 18.8513C81.2061 18.8513 81.753 20.2897 81.753 21.6938C81.753 24.6041 80.3504 29.056 77.85 29.056Z" fill="black"/>
<path d="M98.6711 15.2207C95.481 15.2207 93.6708 18.0288 93.6708 18.0288H93.6031L93.8772 15.4948H89.6994C89.4942 17.2075 89.1166 19.8092 88.7408 21.7616L85.4531 39.0544H90.1793L91.4796 32.0684H91.5832C91.5832 32.0684 92.5527 32.6845 94.3571 32.6845C99.9044 32.6845 103.534 27.0005 103.534 21.2466C103.534 18.0633 102.129 15.2207 98.6711 15.2207ZM94.1507 29.1237C92.9239 29.1237 92.1979 28.4389 92.1979 28.4389L92.9858 24.0214C93.5341 21.0767 95.0747 19.1244 96.7189 19.1244C98.1573 19.1244 98.6021 20.4596 98.6021 21.7272C98.6021 24.775 96.7873 29.1237 94.1507 29.1237Z" fill="black"/>
<path d="M110.279 8.43945C108.773 8.43945 107.574 9.63818 107.574 11.1788C107.574 12.5829 108.464 13.5418 109.8 13.5418H109.868C111.341 13.5418 112.608 12.5484 112.642 10.8025C112.642 9.4328 111.718 8.43945 110.279 8.43945Z" fill="black"/>
<path d="M103.671 32.3422H108.396L111.616 15.5977H106.855L103.671 32.3422Z" fill="black"/>
<path d="M123.636 15.5645H120.348L120.518 14.7765C120.793 13.1671 121.752 11.7286 123.327 11.7286C124.168 11.7286 124.833 11.9683 124.833 11.9683L125.758 8.27006C125.758 8.27006 124.936 7.85938 123.189 7.85938C121.511 7.85938 119.834 8.33883 118.566 9.43434C116.957 10.8041 116.203 12.7897 115.827 14.7765L115.691 15.5645H113.498L112.813 19.1263H115.006L112.506 32.3445H117.232L119.732 19.1263H122.985L123.636 15.5645Z" fill="black"/>
<path d="M135.004 15.5988C135.004 15.5988 132.049 23.0416 130.723 27.1044H130.654C130.564 25.796 129.49 15.5988 129.49 15.5988H124.524L127.368 30.9736C127.437 31.3155 127.402 31.5219 127.265 31.7616C126.716 32.8227 125.792 33.8505 124.696 34.6042C123.806 35.2546 122.813 35.6653 122.025 35.9394L123.326 39.9463C124.286 39.7409 126.271 38.9529 127.949 37.3779C130.107 35.3578 132.092 32.2411 134.147 27.9945L139.934 15.5977H135.004V15.5988Z" fill="black"/>
</g>
<defs>
<clipPath id="clip0_1838_10243">
<rect width="140" height="39.7209" fill="white" transform="translate(0.5 0.224609)"/>
</clipPath>
</defs>
</svg>
