<?xml version="1.0" encoding="UTF-8"?><svg width="193" height="32" viewBox="0 0 193 32" fill="none" xmlns="http://www.w3.org/2000/svg">
<path d="M0.5 0.681641H45.0489V31.1301H0.5V0.681641Z" fill="url(#paint0_linear_1997_13980)"/>
<path d="M67.2159 0.866363V1.82076C66.0768 1.94391 65.3071 2.12863 64.8453 2.34414C64.3835 2.55965 64.1372 3.05225 64.1372 3.79114C64.1372 4.12979 64.1987 4.46845 64.2911 4.77632C64.3835 5.08419 64.5374 5.546 64.7837 6.16174L71.6492 22.6636L77.468 8.07054C77.7451 7.36244 77.9914 6.59276 78.2377 5.82308C78.484 5.02262 78.6071 4.43766 78.6071 4.03743C78.6071 3.20618 78.2069 2.59044 77.4372 2.221C76.9446 2.00549 76.2981 1.88234 75.4668 1.82076V0.866363H84.549V1.82076C83.5022 1.91312 82.7326 2.25178 82.2708 2.89831C81.809 3.51405 81.1316 4.93026 80.2388 7.17771L70.8795 30.5759C70.6948 30.9761 70.5717 31.2532 70.4485 31.4071C70.3254 31.5611 70.2022 31.6534 70.0175 31.6534C69.802 31.6534 69.6173 31.5303 69.4633 31.284C69.3094 31.0377 69.1555 30.7298 68.9707 30.3604L59.0265 6.53119C58.2261 4.5916 57.364 3.29854 56.4712 2.59044C55.917 2.19021 55.1473 1.94391 54.1006 1.82076V0.866363H67.2159V0.866363ZM96.5252 0.774002V21.5553C96.5252 23.0331 96.7407 24.203 97.1409 25.0958C97.9414 26.7275 99.45 27.5588 101.605 27.5588C103.083 27.5588 104.53 27.0662 105.977 26.1118C106.777 25.5884 107.609 24.8187 108.44 23.8643V6.06938C108.44 4.37609 108.101 3.29854 107.455 2.77516C106.808 2.25178 105.515 1.94391 103.575 1.82076V0.743215H113.951V23.8643C113.951 25.2805 114.197 26.2657 114.72 26.8199C115.244 27.374 116.321 27.5895 117.953 27.528V28.4824C116.783 28.7902 115.921 29.0365 115.367 29.1905C114.813 29.3444 113.889 29.6523 112.596 30.0525C112.042 30.2372 110.841 30.699 108.963 31.4379C108.84 31.4379 108.809 31.3764 108.778 31.284C108.748 31.1916 108.748 31.0685 108.748 30.9146V25.5884C107.27 27.3433 105.915 28.6363 104.684 29.4983C102.837 30.7914 100.866 31.4379 98.8034 31.4379C96.9254 31.4379 95.1398 30.7606 93.4465 29.4368C91.7532 28.1129 90.8911 25.8963 90.8911 22.7868V5.94623C90.8911 4.22216 90.5525 3.05225 89.8136 2.46729C89.3518 2.09785 88.3666 1.85155 86.858 1.69761V0.743215H96.5252V0.774002ZM125.25 5.05341C127.928 2.12863 131.376 0.681641 135.594 0.681641C139.781 0.681641 143.26 2.06706 146.031 4.8379C148.771 7.60873 150.156 11.2724 150.156 15.8905C150.156 20.1083 148.832 23.8027 146.154 26.9122C143.475 30.0217 140.027 31.5919 135.779 31.5919C131.715 31.5919 128.267 30.0833 125.434 27.097C122.602 24.1106 121.216 20.3238 121.216 15.7981C121.216 11.5495 122.54 7.97818 125.25 5.05341V5.05341ZM130.299 4.16058C128.174 6.10017 127.097 9.45596 127.097 14.1972C127.097 17.984 127.959 21.5245 129.683 24.7879C131.407 28.0821 133.778 29.7139 136.825 29.7139C139.227 29.7139 141.043 28.6055 142.336 26.4196C143.629 24.2338 144.276 21.3398 144.276 17.7993C144.276 14.1048 143.445 10.6567 141.813 7.39322C140.181 4.12979 137.78 2.49808 134.67 2.49808C132.977 2.49808 131.53 3.05225 130.299 4.16058V4.16058ZM153.358 30.3604C155.359 30.2065 156.683 29.837 157.33 29.2828C157.976 28.7595 158.315 27.6203 158.315 25.8655V11.1185C158.315 8.99415 158.099 7.4548 157.699 6.53119C157.299 5.60757 156.56 5.14577 155.482 5.14577C155.267 5.14577 154.959 5.17655 154.62 5.23813C154.251 5.2997 153.882 5.36128 153.481 5.45364V4.40688C154.713 3.97586 156.006 3.54484 157.299 3.11382C158.623 2.65201 159.516 2.34414 160.039 2.12863C161.116 1.7284 162.256 1.2666 163.426 0.743215C163.579 0.743215 163.672 0.804789 163.703 0.927938C163.733 1.05109 163.764 1.29738 163.764 1.66683V7.05457C165.119 5.11498 166.443 3.57563 167.705 2.49808C168.967 1.42053 170.291 0.866363 171.646 0.866363C172.723 0.866363 173.616 1.20502 174.293 1.88234C174.971 2.55965 175.309 3.3909 175.309 4.40688C175.309 5.2997 175.063 6.06938 174.54 6.68512C174.016 7.30086 173.37 7.60873 172.569 7.60873C171.769 7.60873 170.968 7.23929 170.137 6.46961C169.337 5.69994 168.69 5.33049 168.228 5.33049C167.489 5.33049 166.597 5.94623 165.488 7.14693C164.411 8.37841 163.857 9.64068 163.857 10.9337V25.5268C163.857 27.374 164.288 28.6363 165.18 29.3444C166.042 30.0525 167.52 30.3912 169.552 30.3604V31.4071H153.358V30.3604V30.3604ZM187.624 0.866363C187.901 0.774002 187.87 1.17423 187.87 1.35896V24.6648C187.87 27.1277 188.178 28.6671 188.763 29.2828C189.379 29.8986 190.703 30.2988 192.827 30.4835V31.4379H177.003V30.4835C179.342 30.268 180.789 29.8678 181.405 29.3136C182.021 28.7287 182.298 27.2201 182.298 24.6956V8.99415C182.298 7.60873 182.206 6.62355 182.021 6.10017C181.682 5.20734 181.036 4.77632 179.989 4.77632C179.743 4.77632 179.527 4.80711 179.312 4.8379C179.096 4.86868 178.45 5.05341 177.372 5.36128V4.09901C177.372 4.06822 182.021 2.62123 187.624 0.866363V0.866363Z" fill="#231F20"/>
<defs>
<linearGradient id="paint0_linear_1997_13980" x1="22.7702" y1="1.62589" x2="22.7702" y2="30.204" gradientUnits="userSpaceOnUse">
<stop stop-color="#F8EB30"/>
<stop offset="0.319" stop-color="#FAAF43"/>
<stop offset="0.767" stop-color="#28A8E0"/>
<stop offset="1" stop-color="#A4DEF9"/>
</linearGradient>
</defs>
</svg>
